<svg width="24" height="24" viewBox="0 0 24 24" fill="none" xmlns="http://www.w3.org/2000/svg">
<path d="M16.5003 8V14.5C16.5003 14.6326 16.4476 14.7598 16.3538 14.8536C16.2601 14.9473 16.1329 15 16.0003 15C15.8677 15 15.7405 14.9473 15.6467 14.8536C15.553 14.7598 15.5003 14.6326 15.5003 14.5V9.20687L8.35403 16.3538C8.26021 16.4476 8.13296 16.5003 8.00028 16.5003C7.8676 16.5003 7.74035 16.4476 7.64653 16.3538C7.55271 16.2599 7.5 16.1327 7.5 16C7.5 15.8673 7.55271 15.7401 7.64653 15.6462L14.7934 8.5H9.50028C9.36767 8.5 9.24049 8.44732 9.14672 8.35355C9.05296 8.25979 9.00028 8.13261 9.00028 8C9.00028 7.86739 9.05296 7.74021 9.14672 7.64645C9.24049 7.55268 9.36767 7.5 9.50028 7.5H16.0003C16.1329 7.5 16.2601 7.55268 16.3538 7.64645C16.4476 7.74021 16.5003 7.86739 16.5003 8Z" fill="#067E54"/>
</svg>
