<svg width="10" height="10" viewBox="0 0 10 10" fill="none" xmlns="http://www.w3.org/2000/svg">
<path d="M9.50003 1V7.5C9.50003 7.63261 9.44736 7.75979 9.35359 7.85355C9.25982 7.94732 9.13264 8 9.00003 8C8.86743 8 8.74025 7.94732 8.64648 7.85355C8.55271 7.75979 8.50003 7.63261 8.50003 7.5V2.20687L1.35378 9.35375C1.25996 9.44757 1.13272 9.50028 1.00003 9.50028C0.867352 9.50028 0.740104 9.44757 0.646284 9.35375C0.552464 9.25993 0.499756 9.13268 0.499756 9C0.499756 8.86732 0.552464 8.74007 0.646284 8.64625L7.79316 1.5H2.50003C2.36743 1.5 2.24025 1.44732 2.14648 1.35355C2.05271 1.25979 2.00003 1.13261 2.00003 1C2.00003 0.867392 2.05271 0.740215 2.14648 0.646447C2.24025 0.552679 2.36743 0.5 2.50003 0.5H9.00003C9.13264 0.5 9.25982 0.552679 9.35359 0.646447C9.44736 0.740215 9.50003 0.867392 9.50003 1Z" fill="#056141"/>
</svg>
