<svg width="24" height="20" viewBox="0 0 24 20" fill="none" xmlns="http://www.w3.org/2000/svg">
<path d="M0.2925 10.7074L9.2925 19.7074C9.48014 19.8951 9.73464 20.0005 10 20.0005C10.2654 20.0005 10.5199 19.8951 10.7075 19.7074C10.8951 19.5198 11.0006 19.2653 11.0006 18.9999C11.0006 18.7346 10.8951 18.4801 10.7075 18.2924L3.41375 10.9999H23C23.2652 10.9999 23.5196 10.8946 23.7071 10.7071C23.8946 10.5195 24 10.2652 24 9.99995C24 9.73473 23.8946 9.48038 23.7071 9.29284C23.5196 9.1053 23.2652 8.99995 23 8.99995H3.41375L10.7075 1.70745C10.8951 1.5198 11.0006 1.26531 11.0006 0.999946C11.0006 0.734582 10.8951 0.480086 10.7075 0.292446C10.5199 0.104805 10.2654 -0.000610352 10 -0.000610352C9.73464 -0.000610352 9.48014 0.104805 9.2925 0.292446L0.2925 9.29245C0.199524 9.38532 0.125763 9.49561 0.0754395 9.61701C0.025116 9.7384 -0.000785828 9.86853 -0.000785828 9.99995C-0.000785828 10.1314 0.025116 10.2615 0.0754395 10.3829C0.125763 10.5043 0.199524 10.6146 0.2925 10.7074Z" fill="#E5E5E5"/>
</svg>
